<svg width="36" height="36" viewBox="0 0 36 36" fill="none" xmlns="http://www.w3.org/2000/svg">
<path d="M33.7865 26.1703L21.4888 4.81353C21.1326 4.20436 20.6231 3.69907 20.011 3.34792C19.3989 2.99678 18.7056 2.81201 17.9999 2.81201C17.2942 2.81201 16.6009 2.99678 15.9888 3.34792C15.3767 3.69907 14.8672 4.20436 14.511 4.81353L2.21333 26.1703C1.8677 26.7614 1.68555 27.4338 1.68555 28.1186C1.68555 28.8034 1.8677 29.4758 2.21333 30.067C2.56558 30.6792 3.07436 31.1866 3.68748 31.5373C4.30059 31.888 4.99596 32.0692 5.70224 32.0624H30.2975C31.0034 32.0687 31.6981 31.8872 32.3107 31.5366C32.9233 31.186 33.4316 30.6788 33.7836 30.067C34.1297 29.4761 34.3123 28.8038 34.3128 28.119C34.3133 27.4342 34.1317 26.7616 33.7865 26.1703ZM30.8615 28.3781C30.8043 28.4755 30.7218 28.5557 30.6228 28.6102C30.5238 28.6646 30.4119 28.6913 30.299 28.6874H5.70224C5.5893 28.6913 5.47742 28.6646 5.3784 28.6102C5.27939 28.5557 5.19693 28.4755 5.13974 28.3781C5.09123 28.2992 5.06554 28.2084 5.06554 28.1158C5.06554 28.0232 5.09123 27.9324 5.13974 27.8535L17.4374 6.49682C17.4983 6.40308 17.5816 6.32605 17.6799 6.27273C17.7781 6.2194 17.8881 6.19147 17.9999 6.19147C18.1117 6.19147 18.2217 6.2194 18.3199 6.27273C18.4181 6.32605 18.5015 6.40308 18.5624 6.49682L30.8586 27.8535C30.9076 27.9322 30.9337 28.0228 30.9342 28.1154C30.9347 28.208 30.9095 28.2989 30.8615 28.3781ZM16.3124 19.1249V14.6249C16.3124 14.1774 16.4902 13.7482 16.8066 13.4317C17.1231 13.1152 17.5523 12.9374 17.9999 12.9374C18.4474 12.9374 18.8767 13.1152 19.1931 13.4317C19.5096 13.7482 19.6874 14.1774 19.6874 14.6249V19.1249C19.6874 19.5725 19.5096 20.0017 19.1931 20.3182C18.8767 20.6347 18.4474 20.8124 17.9999 20.8124C17.5523 20.8124 17.1231 20.6347 16.8066 20.3182C16.4902 20.0017 16.3124 19.5725 16.3124 19.1249ZM20.2499 24.7499C20.2499 25.1949 20.1179 25.63 19.8707 26C19.6235 26.37 19.2721 26.6584 18.8609 26.8287C18.4498 26.999 17.9974 27.0435 17.5609 26.9567C17.1245 26.8699 16.7236 26.6556 16.4089 26.3409C16.0942 26.0263 15.8799 25.6254 15.7931 25.1889C15.7063 24.7524 15.7509 24.3 15.9212 23.8889C16.0915 23.4778 16.3798 23.1264 16.7499 22.8791C17.1199 22.6319 17.5549 22.4999 17.9999 22.4999C18.5966 22.4999 19.1689 22.737 19.5909 23.159C20.0128 23.5809 20.2499 24.1532 20.2499 24.7499Z" fill="white"/>
</svg>
